<?xml version="1.0" encoding="UTF-8"?>
<svg id="coffee-bean" data-name="coffee-bean" xmlns="http://www.w3.org/2000/svg" viewBox="0 0 643.91 707">
  <defs>
    <style>
      .cls-1 {
        stroke-width: 0px;
        color: white;
      }
    </style>
  </defs>
  <path class="cls-1" d="m553.27,41.49C429.59-50.2,225.76,15.16,98.01,187.48c-127.75,172.32-131.05,386.34-7.37,478.03,123.68,91.69,327.5,26.33,455.25-145.98,127.75-172.32,131.05-386.34,7.37-478.03ZM86.32,268.52s-61.72,133.08-38.15,301.12c0,0-57.67-131.67,38.15-301.12Zm297.54,83.25h.36c-4.25,289.48-319.32,269.54-319.32,269.54,0,0,174.93,8.06,196.03-268.19h-.36c4.25-289.48,319.32-269.54,319.32-269.54,0,0-174.93-8.06-196.03,268.19Zm210.41-205.19s56.1,132.34-41.72,300.65c0,0,63.29-132.34,41.72-300.65Z"/>
</svg>